<svg id="Ebene_1" data-name="Ebene 1" xmlns="http://www.w3.org/2000/svg" viewBox="0 0 293.32 80.75"><defs><style>.cls-1{fill:#9b1915;}.cls-2{fill:#1d1d1b;}.cls-3{fill:#fff;}</style></defs><polygon class="cls-1" points="171.38 0 171.38 80.57 146.95 63.37 122.51 80.75 122.51 0 171.38 0"/><path class="cls-2" d="M0,54V23.11H10A14.61,14.61,0,0,1,17.32,25a13,13,0,0,1,5.11,5.25,15.91,15.91,0,0,1,1.86,7.59v1.42a15.87,15.87,0,0,1-1.8,7.61,13.05,13.05,0,0,1-5,5.26A14.36,14.36,0,0,1,10.17,54ZM7.45,28.87V48.29H10A5.81,5.81,0,0,0,15,46c1.14-1.52,1.72-3.78,1.72-6.78V37.89c0-3-.58-5.24-1.72-6.75a5.92,5.92,0,0,0-5-2.27Z"/><path class="cls-2" d="M54.29,39.21a18.2,18.2,0,0,1-1.68,8,12.4,12.4,0,0,1-4.77,5.36,13.29,13.29,0,0,1-7,1.88,13.45,13.45,0,0,1-7-1.82A12.32,12.32,0,0,1,29,47.44a17.72,17.72,0,0,1-1.79-7.74V38a18.32,18.32,0,0,1,1.66-8,12.47,12.47,0,0,1,4.78-5.36,13.39,13.39,0,0,1,7.08-1.89,13.2,13.2,0,0,1,7,1.87,12.58,12.58,0,0,1,4.79,5.32,18,18,0,0,1,1.73,7.9Zm-7.58-1.3c0-3.07-.52-5.4-1.54-7a4.94,4.94,0,0,0-4.41-2.39q-5.59,0-5.92,8.41l0,2.27a13.41,13.41,0,0,0,1.5,7,4.93,4.93,0,0,0,4.48,2.44,4.88,4.88,0,0,0,4.36-2.4,13,13,0,0,0,1.55-6.9Z"/><path class="cls-2" d="M83.94,54H76.53l-11-19.24V54H58.13V23.11h7.45L76.51,42.35V23.11h7.43Z"/><path class="cls-2" d="M107.83,40.91H96.11v7.38H110V54H88.66V23.11H110v5.76H96.11v6.52h11.72Z"/><path class="cls-2" d="M183.33,54.46V23.55h10a14.61,14.61,0,0,1,7.36,1.86,13.09,13.09,0,0,1,5.11,5.24,16,16,0,0,1,1.86,7.59v1.42a15.87,15.87,0,0,1-1.8,7.61,13.08,13.08,0,0,1-5,5.27,14.25,14.25,0,0,1-7.27,1.92Zm7.45-25.16V48.73h2.59a5.81,5.81,0,0,0,4.93-2.28c1.14-1.53,1.72-3.79,1.72-6.79V38.33c0-3-.58-5.24-1.72-6.76a5.92,5.92,0,0,0-5-2.27Z"/><path class="cls-2" d="M237.61,39.64a18.38,18.38,0,0,1-1.67,8A12.46,12.46,0,0,1,231.17,53a13.3,13.3,0,0,1-7,1.87,13.45,13.45,0,0,1-7-1.81,12.37,12.37,0,0,1-4.77-5.19,17.59,17.59,0,0,1-1.79-7.75V38.39a18.36,18.36,0,0,1,1.66-8A12.41,12.41,0,0,1,217,25a14.14,14.14,0,0,1,14.09,0,12.62,12.62,0,0,1,4.78,5.32,17.73,17.73,0,0,1,1.73,7.91ZM230,38.35c0-3.07-.51-5.41-1.53-7A5,5,0,0,0,224.09,29q-5.61,0-5.92,8.41l0,2.27a13.45,13.45,0,0,0,1.5,7,5,5,0,0,0,4.48,2.44,4.86,4.86,0,0,0,4.35-2.4,13,13,0,0,0,1.55-6.9Z"/><path class="cls-2" d="M267.27,54.46h-7.41l-11-19.23V54.46h-7.45V23.55h7.45l10.93,19.23V23.55h7.43Z"/><path class="cls-2" d="M291.16,41.34H279.44v7.39h13.84v5.73H272V23.55h21.33V29.3H279.44v6.52h11.72Z"/><path class="cls-3" d="M135.05,43.72a7.09,7.09,0,0,1,1.2-4,16.5,16.5,0,0,1,4.41-4,22.25,22.25,0,0,1-2.17-3.48,7.71,7.71,0,0,1-.78-3.38A7.9,7.9,0,0,1,140,23a8.33,8.33,0,0,1,6.14-2.26,8,8,0,0,1,5.68,2.06A6.7,6.7,0,0,1,154,27.9q0,3.71-3.73,6.52l-2.38,1.72,5.33,6.2a11.85,11.85,0,0,0,1.25-5.43h5.22q0,6-2.78,9.76L161.57,52h-7L153,50.22a13.94,13.94,0,0,1-7.85,2.25,10.81,10.81,0,0,1-7.35-2.41A8,8,0,0,1,135.05,43.72Zm10.41,3.8a7.79,7.79,0,0,0,4.18-1.23l-6.09-7-.45.32a4.85,4.85,0,0,0-1.89,3.79,4,4,0,0,0,1.18,3A4.19,4.19,0,0,0,145.46,47.52Zm-2.25-18.77a7.27,7.27,0,0,0,1.86,4l1.64-1.09a5.52,5.52,0,0,0,1.73-1.57,3.36,3.36,0,0,0,.48-1.82,2.54,2.54,0,0,0-.79-1.85,2.75,2.75,0,0,0-2-.79,2.79,2.79,0,0,0-2.11.85A3.17,3.17,0,0,0,143.21,28.75Z"/></svg>