<svg id="Layer_1" data-name="Layer 1" xmlns="http://www.w3.org/2000/svg" viewBox="0 0 311.09 61.95"><defs><style>.cls-1{fill:#3d3d3d;}.cls-2{fill:#ffa000;}</style></defs><path class="cls-1" d="M13.26,18.2c9.41,0,14.93,5.35,14.93,15.28S22.64,49.21,13.26,49.21H0v-31ZM9.11,42H12c4.55,0,6.94-2.78,6.94-8.49,0-5.22-2.58-8-6.94-8H9.11Z"/><path class="cls-1" d="M62.22,33.72c0,9.9-6,16-15.62,16S31,43.62,31,33.72s6-16,15.62-16S62.22,23.81,62.22,33.72Zm-22,0c0,5.35,2.52,8.76,6.34,8.76s6.34-3.41,6.34-8.76-2.54-8.79-6.34-8.79S40.26,28.34,40.26,33.72Z"/><path class="cls-1" d="M65.76,49.21v-31h7.07l12,16.07H85V18.2h8.59v31h-7l-12-16.33h-.17V49.21Z"/><path class="cls-1" d="M119.73,49.21H97.86v-31h21.87v7.24H107v5h12V37H107v5h12.76Z"/><path class="cls-1" d="M204.61,18.2c9.41,0,14.93,5.35,14.93,15.28S214,49.21,204.61,49.21H191.36v-31ZM200.46,42h2.86c4.56,0,6.94-2.78,6.94-8.49,0-5.22-2.58-8-6.94-8h-2.86Z"/><path class="cls-1" d="M253.57,33.72c0,9.9-6,16-15.61,16s-15.62-6.12-15.62-16,6-16,15.62-16S253.57,23.81,253.57,33.72Zm-21.95,0c0,5.35,2.51,8.76,6.34,8.76s6.33-3.41,6.33-8.76-2.53-8.79-6.33-8.79S231.62,28.34,231.62,33.72Z"/><path class="cls-1" d="M257.12,49.21v-31h7.07l12,16.07h.18V18.2h8.59v31h-7L265.88,32.88h-.17V49.21Z"/><path class="cls-1" d="M311.09,49.21H289.22v-31h21.87v7.24H298.33v5h12V37h-12v5h12.76Z"/><path class="cls-2" d="M172.23,62H141.14a9.22,9.22,0,0,1-9.21-9.22V15.43a9.22,9.22,0,0,1,9.21-9.21h3.72A9.23,9.23,0,0,1,153.58,0h6.21a9.23,9.23,0,0,1,8.72,6.22h3.72a9.22,9.22,0,0,1,9.21,9.21v37.3A9.22,9.22,0,0,1,172.23,62ZM141.14,12.22a3.21,3.21,0,0,0-3.21,3.21v37.3A3.22,3.22,0,0,0,141.14,56h31.09a3.22,3.22,0,0,0,3.21-3.22V15.43a3.21,3.21,0,0,0-3.21-3.21h-3.72a9.23,9.23,0,0,1-8.72,6.21h-6.21a9.23,9.23,0,0,1-8.72-6.21Zm9.22-3a3.22,3.22,0,0,0,3.22,3.21h6.21a3.22,3.22,0,1,0,0-6.43h-6.21A3.22,3.22,0,0,0,150.36,9.22Zm3.22,37.19a3,3,0,0,1-2.12-.88l-6.22-6.22a3,3,0,0,1,4.24-4.24l4.1,4.1,10.31-10.32a3,3,0,0,1,4.24,4.25L155.7,45.53A3,3,0,0,1,153.58,46.41Z"/></svg>