<?xml version="1.0" standalone="no"?>
<!DOCTYPE svg PUBLIC "-//W3C//DTD SVG 20010904//EN"
 "http://www.w3.org/TR/2001/REC-SVG-20010904/DTD/svg10.dtd">
<svg version="1.0" xmlns="http://www.w3.org/2000/svg"
 width="285.000000pt" height="285.000000pt" viewBox="0 0 285.000000 285.000000"
 preserveAspectRatio="xMidYMid meet">
<metadata>
Created by potrace 1.11, written by Peter Selinger 2001-2013
</metadata>
<g transform="translate(0.000000,285.000000) scale(0.100000,-0.100000)"
fill="#000000" stroke="none">
<path d="M1226 2655 c-107 -22 -197 -89 -253 -190 l-28 -50 -100 -1 c-120 -1
-192 -21 -261 -72 -65 -50 -107 -108 -133 -183 -20 -61 -21 -73 -18 -873 l2
-811 24 -60 c33 -82 124 -173 206 -206 l60 -24 700 0 700 0 57 23 c105 42 193
143 221 250 9 37 12 239 12 853 -1 896 2 853 -70 951 -78 106 -177 150 -343
153 l-103 1 -18 40 c-37 82 -125 159 -217 188 -59 20 -359 27 -438 11z m387
-254 c42 -27 60 -59 60 -105 0 -50 -24 -91 -67 -113 -25 -13 -62 -17 -187 -17
-146 0 -157 1 -187 23 -18 12 -38 35 -46 49 -17 34 -12 93 10 127 32 48 56 54
229 55 139 0 164 -3 188 -19z m-676 -230 c6 -1 21 -21 33 -45 46 -96 153 -174
268 -196 76 -14 337 -10 402 7 102 26 189 94 236 186 13 26 30 47 37 48 74 6
171 -2 196 -17 66 -39 62 6 63 -850 0 -584 -3 -783 -12 -805 -7 -16 -29 -39
-49 -51 l-36 -23 -650 1 c-602 0 -652 1 -683 18 -70 36 -67 5 -67 857 0 823 0
810 53 845 42 28 74 32 209 25z"/>
<path d="M1754 1535 c-16 -7 -125 -107 -241 -224 l-213 -212 -82 82 c-99 97
-117 110 -160 113 -86 8 -151 -83 -119 -166 9 -22 275 -293 304 -310 15 -8 55
-12 92 -9 22 1 549 521 571 564 16 30 14 79 -4 114 -25 46 -97 70 -148 48z"/>
</g>
</svg>
