<?xml version="1.0" standalone="no"?>
<!DOCTYPE svg PUBLIC "-//W3C//DTD SVG 20010904//EN"
 "http://www.w3.org/TR/2001/REC-SVG-20010904/DTD/svg10.dtd">
<svg version="1.0" xmlns="http://www.w3.org/2000/svg"
 width="568.000000pt" height="568.000000pt" viewBox="0 0 568.000000 568.000000"
 preserveAspectRatio="xMidYMid meet">
<metadata>
Created by potrace 1.11, written by Peter Selinger 2001-2013
</metadata>
<g transform="translate(0.000000,568.000000) scale(0.100000,-0.100000)"
fill="#000000" stroke="none">
<path d="M1112 2840 c0 -1567 4 -2840 9 -2840 4 0 205 140 446 312 608 433
795 566 817 580 10 7 33 24 52 38 18 14 64 47 101 73 37 26 119 84 181 128 62
45 118 79 125 76 11 -4 76 -50 368 -257 50 -36 126 -89 168 -118 41 -29 85
-59 96 -67 38 -28 790 -557 931 -656 78 -55 144 -99 146 -99 3 0 5 1276 5
2835 l0 2835 -1723 0 -1722 0 0 -2840z"/>
</g>
</svg>
